HIERARCHY
ROOT root
{
	OFFSET	0	13.1	24.9
	CHANNELS 6  Xposition Yposition Zposition Xrotation Yrotation Zrotation
	JOINT spine_1
	{
		OFFSET	0	9.99999	0
		CHANNELS 3  Xrotation Yrotation Zrotation
		JOINT spine_2
		{
			OFFSET	0	112	-10
			CHANNELS 3  Xrotation Yrotation Zrotation
			JOINT spine_3
			{
				OFFSET	0	206.5	19.3
				CHANNELS 3  Xrotation Yrotation Zrotation
				JOINT spine_4
				{
					OFFSET	0	110.4	14.6
					CHANNELS 3  Xrotation Yrotation Zrotation
					JOINT neck_1
					{
						OFFSET	0	71.8	-50.3
						CHANNELS 3  Xrotation Yrotation Zrotation
						JOINT neck_2
						{
							OFFSET	0	86.2	-25.8
							CHANNELS 3  Xrotation Yrotation Zrotation
							JOINT head_ee
							{
								OFFSET	0	179.8	-8.7
								CHANNELS 3  Xrotation Yrotation Zrotation
								End Site
								{
									OFFSET	1	0	0
								}
							}
						}
					}
					JOINT left_clavicle
					{
						OFFSET	-43.2	22.4	-70.8
						CHANNELS 3  Xrotation Yrotation Zrotation
						JOINT left_shoulder
						{
							OFFSET	-93.9	-5.79999	48.7
							CHANNELS 3  Xrotation Yrotation Zrotation
							JOINT left_elbow
							{
								OFFSET	-291.4	-30.8	15.2
								CHANNELS 3  Xrotation Yrotation Zrotation
								JOINT left_lowarm_twist
								{
									OFFSET	-110.7	-3.89999	13.6
									CHANNELS 3  Xrotation Yrotation Zrotation
									JOINT left_hand
									{
										OFFSET	-110.7	-3.89999	13.6
										CHANNELS 3  Xrotation Yrotation Zrotation
										JOINT left_ee
										{
											OFFSET	-80.8	-5.10001	12.1
											CHANNELS 3  Xrotation Yrotation Zrotation
											End Site
											{
												OFFSET	1	0	0
											}
										}
									}
								}
							}
						}
					}
					JOINT right_clavicle
					{
						OFFSET	43.2	22.4	-70.8
						CHANNELS 3  Xrotation Yrotation Zrotation
						JOINT right_shoulder
						{
							OFFSET	93.9	-5.79999	48.7
							CHANNELS 3  Xrotation Yrotation Zrotation
							JOINT right_elbow
							{
								OFFSET	291.4	-30.8	15.2
								CHANNELS 3  Xrotation Yrotation Zrotation
								JOINT right_lowarm_twist
								{
									OFFSET	110.7	-3.89999	13.6
									CHANNELS 3  Xrotation Yrotation Zrotation
									JOINT right_hand
									{
										OFFSET	110.7	-3.89999	13.6
										CHANNELS 3  Xrotation Yrotation Zrotation
										JOINT right_ee
										{
											OFFSET	80.8	-5.10001	12.1
											CHANNELS 3  Xrotation Yrotation Zrotation
											End Site
											{
												OFFSET	1	0	0
											}
										}
									}
								}
							}
						}
					}
				}
			}
		}
	}
	JOINT left_hip
	{
		OFFSET	-82.8	-127.5	0.300001
		CHANNELS 3  Xrotation Yrotation Zrotation
		JOINT left_knee
		{
			OFFSET	-28.2	-396.7	2.2
			CHANNELS 3  Xrotation Yrotation Zrotation
			JOINT left_ankle
			{
				OFFSET	-11.7	-411.3	35.4
				CHANNELS 3  Xrotation Yrotation Zrotation
				JOINT left_toes
				{
					OFFSET	0	-60	-88.6
					CHANNELS 3  Xrotation Yrotation Zrotation
					JOINT left_foot_ee
					{
						OFFSET	-22.5	-16.5	-42.2
						CHANNELS 3  Xrotation Yrotation Zrotation
						End Site
						{
							OFFSET	1	0	0
						}
					}
				}
			}
		}
	}
	JOINT right_hip
	{
		OFFSET	82.8	-127.5	0.300001
		CHANNELS 3  Xrotation Yrotation Zrotation
		JOINT right_knee
		{
			OFFSET	28.2	-396.7	2.2
			CHANNELS 3  Xrotation Yrotation Zrotation
			JOINT right_ankle
			{
				OFFSET	11.7	-411.3	35.4
				CHANNELS 3  Xrotation Yrotation Zrotation
				JOINT right_toes
				{
					OFFSET	0	-60	-88.6
					CHANNELS 3  Xrotation Yrotation Zrotation
					JOINT right_foot_ee
					{
						OFFSET	22.5	-16.5	-42.2
						CHANNELS 3  Xrotation Yrotation Zrotation
						End Site
						{
							OFFSET	1	0	0
						}
					}
				}
			}
		}
	}
}
MOTION
Frames: 16
Frame Time: 0.02
1995.6 734.508 -524.84 146.283 -84.3126 152.459 -0.550601 -0.176847 -1.19846 -0.549807 -0.100233 -1.20728 -0.547159 0.167229 -1.19983 -0.549167 -0.0243467 -1.21119 -15.7306 6.08414 6.79678 -15.6528 7.7054 8.47137 -0.0 0.0 -0.0 4.69472 19.3025 9.27835 -21.2398 -19.4296 65.982 0.718113 -19.5821 0.123926 -72.1925 -6.82607 5.31655 0.804331 14.4691 10.9981 -0.0 0.0 -0.0 7.32332 -9.85001 -13.9673 -19.9583 44.8412 -54.8592 1.05916 27.6842 -0.260986 -31.1823 2.06588 -3.35819 -1.64237 -0.820563 10.6601 0.0 0.0 0.0 30.3826 56.2433 -35.1796 -9.08581 0.26612 1.36754 18.4858 -30.9477 -3.23061 -18.5144 0.0 0.0 -0.0 0.0 -0.0 3.20753 31.6023 -12.5446 2.16724 0.0952946 0.318884 20.9109 -26.6204 3.01678 -15.6745 0.0 0.0 0.0 0.0 0.0 
2001.32 731.26 -531.043 149.634 -83.3545 155.564 -0.318799 -0.198255 -1.27087 -0.317908 -0.116991 -1.28091 -0.314739 0.161868 -1.27602 -0.317009 -0.0416696 -1.28557 -16.3001 5.1586 5.89424 -16.2421 6.52479 7.34587 -0.0 0.0 -0.0 4.95656 18.9873 9.68299 -21.121 -19.4819 66.0241 0.683229 -18.6985 0.112488 -71.9136 -6.79042 5.31533 0.815729 14.5719 11.1078 -0.0 0.0 -0.0 6.69054 -8.69849 -12.8706 -20.681 46.2084 -55.0645 1.02725 26.9695 -0.246337 -30.6992 2.02062 -3.31588 -1.79663 0.24725 12.2033 0.0 0.0 0.0 30.5493 56.311 -35.7313 -12.8605 0.312373 1.94477 20.5394 -30.305 -3.51657 -17.3331 0.0 0.0 -0.0 0.0 -0.0 2.27989 32.257 -11.5607 2.39305 0.105917 0.351901 23.0709 -26.2106 3.28941 -14.178 0.0 0.0 0.0 0.0 0.0 
2007.08 731.427 -533.771 157.49 -82.8147 163.418 0.141328 -0.162212 -1.45094 0.142496 -0.069566 -1.45832 0.144798 0.234893 -1.44096 0.1419 0.00439732 -1.45997 -17.4866 4.61378 7.17066 -17.366 4.91329 8.41255 -0.0 0.0 -0.0 5.0091 18.769 9.76846 -20.3541 -19.0255 66.2651 0.623555 -17.1656 0.094113 -71.9425 -6.79412 5.31546 0.386115 16.1239 8.97716 -0.0 0.0 -0.0 6.21761 -9.53441 -11.9989 -20.5542 45.6307 -55.7921 1.03229 27.083 -0.248627 -28.6259 1.83053 -3.13005 -1.75636 0.481231 12.0359 0.0 0.0 0.0 30.9265 56.1178 -36.188 -13.7709 0.31783 2.08436 18.6957 -30.8103 -3.2573 -16.3667 0.0 0.0 -0.0 0.0 -0.0 1.78759 33.7239 -11.1175 4.35787 0.20383 0.637396 22.1473 -25.1969 3.15154 -14.9701 0.0 0.0 0.0 0.0 0.0 
2013.0 731.03 -539.354 159.98 -82.7512 165.47 0.43555 -0.170207 -1.48852 0.43678 -0.0751546 -1.49633 0.439208 0.229718 -1.48051 0.436149 -0.00695595 -1.4982 -20.3061 3.68304 9.49885 -20.058 2.32756 10.3588 -0.0 0.0 -0.0 4.77303 19.288 9.39737 -20.6763 -18.6314 66.5976 0.75248 -20.4432 0.135688 -72.4703 -6.86157 5.31759 0.106493 19.2247 8.42204 -0.0 0.0 -0.0 5.79817 -9.30539 -11.2555 -21.731 45.6198 -55.3559 1.0509 27.5 -0.25716 -26.8938 1.67699 -2.96966 -1.68567 2.23993 12.3569 0.0 0.0 0.0 31.5213 55.9361 -37.1043 -19.7355 0.298692 2.9989 20.9357 -30.6936 -3.59457 -13.8189 0.0 0.0 -0.0 0.0 -0.0 1.18159 33.8564 -9.96106 4.43316 0.207776 0.648269 23.2753 -23.5724 3.26634 -14.8731 0.0 0.0 0.0 0.0 0.0 
2021.1 725.576 -544.599 162.135 -81.721 167.326 0.756401 -0.125635 -1.53241 0.757707 -0.0278805 -1.5373 0.758806 0.275899 -1.5126 0.755614 0.0335788 -1.53718 -20.1326 3.69351 10.0712 -19.8514 2.02766 10.8851 -0.0 0.0 -0.0 4.89786 18.997 9.59312 -21.3897 -19.9243 66.3036 0.780989 -21.1503 0.14581 -72.8151 -6.90565 5.31863 0.00548655 20.3216 8.22724 -0.0 0.0 -0.0 4.72942 -7.52039 -9.33642 -21.8753 45.8676 -56.7613 1.01089 26.5996 -0.238968 -25.6707 1.57153 -2.85365 -1.6652 3.43495 12.7587 0.0 0.0 0.0 33.2209 56.1263 -39.0839 -23.7014 0.23336 3.60382 22.4242 -29.5462 -3.75852 -12.2131 0.0 0.0 -0.0 0.0 -0.0 0.429427 33.5237 -9.36868 4.11991 0.19145 0.602996 26.4052 -23.9344 3.65881 -14.3212 0.0 0.0 0.0 0.0 0.0 
2023.17 727.226 -546.908 164.498 -80.9372 169.556 0.934529 -0.12037 -1.6746 0.93609 -0.0135822 -1.67886 0.936824 0.312735 -1.64954 0.933029 0.0483338 -1.67822 -20.6872 2.67134 11.3795 -20.3248 -0.496254 11.6993 -0.0 0.0 -0.0 4.88533 19.7424 9.55773 -21.1485 -18.0716 65.9913 0.958316 -25.3943 0.21592 -73.0685 -6.93804 5.31924 -0.329327 21.8318 6.82076 -0.0 0.0 -0.0 4.66883 -7.58328 -9.22826 -20.8578 44.7342 -57.3948 0.968853 25.6378 -0.220459 -24.3389 1.45956 -2.72484 -2.05562 4.27757 15.8554 0.0 0.0 0.0 32.7395 55.9463 -38.8554 -24.6415 0.211745 3.74646 20.7066 -30.2645 -3.53979 -10.917 0.0 0.0 -0.0 0.0 -0.0 0.463535 35.1509 -8.93683 3.85334 0.177752 0.564403 27.4797 -21.9676 3.74948 -14.3669 0.0 0.0 0.0 0.0 0.0 
2027.33 726.067 -549.234 166.823 -80.2174 171.932 1.12158 -0.133089 -1.77152 1.12333 -0.0201116 -1.77639 1.12425 0.319563 -1.74754 1.11999 0.0396069 -1.77606 -21.3752 2.30714 12.2835 -20.9577 -1.49823 12.4067 -0.0 0.0 -0.0 4.86196 18.7709 9.54279 -20.5772 -18.0927 65.8549 0.972382 -25.7192 0.221988 -73.4083 -6.98147 5.31981 -0.550048 23.5438 6.21139 -0.0 0.0 -0.0 4.09019 -8.00011 -8.20006 -20.3587 46.4418 -57.8828 0.935701 24.8682 -0.206316 -24.0045 1.43192 -2.69209 -2.13553 4.82058 16.6658 0.0 0.0 0.0 34.1196 57.0826 -40.5919 -25.373 0.193306 3.8572 20.3847 -30.1262 -3.48502 -10.2421 0.0 0.0 -0.0 0.0 -0.0 -0.0273685 35.837 -8.50936 4.33211 0.202483 0.633676 29.0457 -20.9467 3.91265 -14.061 0.0 0.0 0.0 0.0 0.0 
2032.54 722.301 -549.72 167.218 -80.3464 172.494 1.34364 -0.197992 -1.83923 1.34552 -0.0805763 -1.8481 1.34837 0.266725 -1.83053 1.34369 -0.0256685 -1.84967 -21.5028 1.8243 12.4977 -21.0781 -2.50682 12.4026 -0.0 0.0 -0.0 4.79931 19.4207 9.43468 -20.8351 -17.9603 65.2142 1.08251 -28.2014 0.27193 -73.4913 -6.99207 5.31992 -0.690811 24.508 5.79173 -0.0 0.0 -0.0 3.82139 -7.49074 -7.7025 -21.8361 45.6115 -58.0392 0.8937 23.8793 -0.188982 -23.4451 1.38612 -2.63695 -2.40025 5.82203 19.0021 0.0 0.0 0.0 32.7615 55.0337 -39.6461 -27.3746 0.135637 4.15896 19.7512 -30.0406 -3.3854 -9.67262 0.0 0.0 -0.0 0.0 -0.0 0.202343 35.0748 -9.16675 3.91871 0.181094 0.573873 31.1186 -20.4836 4.13685 -13.8067 0.0 0.0 0.0 0.0 0.0 
2035.94 721.527 -547.349 171.607 -80.1802 177.218 1.61506 -0.368554 -1.89994 1.61703 -0.246932 -1.91953 1.62552 0.107244 -1.93237 1.62037 -0.199226 -1.92506 -20.8485 1.79059 12.6953 -20.412 -2.81642 12.5602 -0.0 0.0 -0.0 4.6296 19.1917 9.18128 -20.6789 -17.9989 64.0326 1.12607 -29.1528 0.292833 -73.9743 -7.05381 5.3202 -1.0676 25.6454 4.13447 -0.0 0.0 -0.0 2.73296 -5.66799 -5.64476 -16.2312 44.8122 -64.5606 0.74873 20.3497 -0.134381 -22.1343 1.28092 -2.50604 -2.91276 5.84068 22.7097 0.0 0.0 0.0 33.1432 56.3479 -40.0247 -23.7829 0.23158 3.61619 21.2331 -30.8919 -3.64885 -8.92485 0.0 0.0 -0.0 0.0 -0.0 0.467281 35.7383 -9.59229 5.47221 0.263705 0.797801 31.2503 -19.2832 4.13005 -14.063 0.0 0.0 0.0 0.0 0.0 
2038.88 721.446 -547.658 173.567 -79.6088 179.488 1.75769 -0.318931 -2.06306 1.76004 -0.187036 -2.07917 1.76694 0.190165 -2.07888 1.76093 -0.140469 -2.08283 -19.4944 2.24506 12.7096 -19.0507 -2.25554 12.7384 -0.0 0.0 -0.0 4.67075 19.0451 9.24599 -20.2876 -18.2987 63.5162 1.17498 -30.2005 0.317049 -73.9374 -7.04909 5.3202 -1.24555 26.6732 3.58505 -0.0 0.0 -0.0 2.23677 -4.84871 -4.68114 -13.8299 43.8142 -66.6976 0.704367 19.2351 -0.119358 -21.0693 1.19768 -2.39796 -3.50137 5.73033 27.0314 0.0 0.0 0.0 35.1578 57.4298 -42.2353 -23.3143 0.24158 3.54498 22.8181 -31.9627 -3.94048 -8.61895 0.0 0.0 -0.0 0.0 -0.0 0.682868 36.2961 -9.86111 5.20854 0.249255 0.75995 32.8157 -18.2443 4.28103 -14.8383 0.0 0.0 0.0 0.0 0.0 
2040.63 720.155 -546.79 174.836 -78.5816 -179.093 1.82885 -0.353249 -2.09735 1.83127 -0.219104 -2.11556 1.83945 0.162467 -2.12066 1.83321 -0.174413 -2.11971 -21.1762 1.70012 13.7817 -20.6671 -3.44881 13.5397 -0.0 0.0 -0.0 4.60989 18.4882 9.16034 -18.9551 -19.0305 62.7373 1.07036 -27.933 0.266213 -74.0789 -7.06718 5.3202 -1.281 25.8107 3.0123 -0.0 0.0 -0.0 1.83736 -3.97155 -3.87582 -10.7563 42.2772 -69.6355 0.637677 17.5307 -0.098324 -19.9381 1.1115 -2.28149 -3.53949 5.82816 27.3686 0.0 0.0 0.0 35.5453 57.1078 -42.8148 -24.0323 0.22602 3.65406 21.854 -30.8742 -3.74049 -7.69992 0.0 0.0 -0.0 0.0 -0.0 0.96521 37.7533 -10.0651 5.61221 0.271448 0.817872 33.6208 -17.5485 4.35421 -14.2798 0.0 0.0 0.0 0.0 0.0 
2045.03 717.235 -548.469 175.575 -79.3048 -178.083 1.95598 -0.468731 -2.17072 1.95854 -0.329687 -2.19613 1.97123 0.0628783 -2.21984 1.96447 -0.288406 -2.20193 -20.5632 1.74744 12.2832 -20.1544 -2.75836 12.1542 -0.0 0.0 -0.0 4.92554 18.4666 9.64655 -19.7524 -18.5213 61.8578 1.21749 -31.0934 0.338721 -75.0242 -7.18796 5.31902 -1.45895 26.9823 2.54436 -0.0 0.0 -0.0 1.22434 -3.4727 -2.69303 -10.2429 42.1119 -70.5878 0.599773 16.5473 -0.0872167 -19.1425 1.05227 -2.19858 -3.8962 5.88899 30.1418 0.0 0.0 0.0 38.4851 58.9731 -45.7517 -23.2641 0.242616 3.53736 24.852 -31.4756 -4.20735 -8.15714 0.0 0.0 -0.0 0.0 -0.0 1.09761 36.8813 -10.6501 4.92723 0.234032 0.719495 34.2512 -16.5907 4.4045 -14.115 0.0 0.0 0.0 0.0 0.0 
2046.18 715.288 -546.166 176.651 -79.7782 -177.025 2.02812 -0.479734 -2.18008 2.0307 -0.340072 -2.20617 2.0438 0.0515925 -2.23162 2.03698 -0.30141 -2.21178 -20.7296 1.70001 12.4927 -20.3082 -2.91755 12.3319 -0.0 0.0 -0.0 4.61191 18.5529 9.16267 -19.0888 -19.5853 61.2069 1.29062 -32.5907 0.377303 -75.2561 -7.21759 5.31842 -1.52573 26.977 2.17479 -0.0 0.0 -0.0 0.252999 -4.19609 -0.966848 -8.2829 42.4803 -73.6227 0.536151 14.8742 -0.0699872 -19.7276 1.09571 -2.25963 -4.21059 6.14506 32.7564 0.0 0.0 0.0 39.0988 59.1979 -46.3953 -22.2436 0.262243 3.38198 24.832 -31.5018 -4.20601 -8.15216 0.0 0.0 -0.0 0.0 -0.0 1.71741 36.7199 -10.7219 4.6878 0.221232 0.685007 34.6011 -16.193 4.4343 -14.039 0.0 0.0 0.0 0.0 0.0 
2047.74 716.688 -546.51 177.973 -79.2823 -175.434 2.17292 -0.333828 -2.27203 2.17578 -0.188615 -2.28866 2.1831 0.20972 -2.28682 2.17584 -0.153975 -2.29125 -20.7462 0.899864 10.5667 -20.4546 -3.50147 10.2032 -0.0 0.0 -0.0 4.73665 18.6013 9.35352 -19.5394 -22.249 59.7286 1.31552 -33.0895 0.390809 -75.7872 -7.28541 5.3166 -1.21619 24.2328 2.68781 -0.0 0.0 -0.0 0.495744 -3.60429 -1.35095 -7.33586 39.8305 -74.5026 0.424569 11.8775 -0.0441654 -18.1453 0.979679 -2.09351 -4.94753 5.95138 38.7714 0.0 0.0 0.0 42.2565 60.1108 -49.1241 -22.3987 0.259438 3.40562 28.4382 -31.397 -4.69253 -7.84477 0.0 0.0 -0.0 0.0 -0.0 2.12093 36.705 -11.4995 4.59209 0.216155 0.671205 35.9741 -16.2721 4.57266 -15.2837 0.0 0.0 0.0 0.0 0.0 
2049.05 714.344 -547.943 179.256 -79.5675 -174.052 2.21167 -0.361576 -2.31457 2.21462 -0.213602 -2.33288 2.22309 0.191105 -2.33483 2.21552 -0.179932 -2.33571 -21.0276 0.663856 9.81801 -20.7795 -3.53619 9.40652 -0.0 0.0 -0.0 5.07729 18.2963 9.88474 -18.5444 -22.4087 59.5297 1.35933 -33.9534 0.415001 -76.0965 -7.3249 5.31525 -1.38029 24.9686 2.08361 -0.0 0.0 -0.0 0.25751 -3.00512 -0.839726 -6.12593 38.7836 -75.8101 0.355139 9.97788 -0.0310016 -17.7269 0.949771 -2.04907 -5.16369 6.02277 40.7032 0.0 0.0 0.0 44.3176 60.868 -50.9871 -21.9868 0.266744 3.34284 30.5748 -31.2781 -4.95947 -7.61003 0.0 0.0 -0.0 0.0 -0.0 2.59986 37.4353 -11.7426 4.30201 0.200911 0.629325 36.5946 -15.6122 4.62359 -15.4181 0.0 0.0 0.0 0.0 0.0 
2052.86 714.129 -548.965 -179.733 -79.4646 -172.914 2.11046 -0.24803 -2.37301 2.11358 -0.0965705 -2.38398 2.11737 0.319656 -2.36444 2.10957 -0.0576642 -2.38524 -21.2952 0.43693 9.16397 -21.0829 -3.60946 8.70033 -0.0 0.0 -0.0 4.62412 18.0111 9.1877 -18.3864 -24.3356 59.4301 1.47142 -36.0861 0.479341 -76.5822 -7.38688 5.31269 -1.43027 24.0674 1.39716 -0.0 0.0 -0.0 0.0809505 -2.40738 -0.439077 -6.49361 37.8297 -76.0928 0.350744 9.85683 -0.0302446 -17.236 0.915099 -1.99664 -5.43034 6.18873 43.2104 0.0 0.0 0.0 46.17 61.3705 -52.5684 -21.7921 0.270041 3.31315 32.1904 -31.1458 -5.14935 -8.26721 0.0 0.0 -0.0 0.0 -0.0 2.65606 37.6867 -11.8082 4.17554 0.194332 0.611044 38.3196 -15.1023 4.78038 -15.9913 0.0 0.0 0.0 0.0 0.0 
